<!DOCTYPE svg PUBLIC "-//W3C//DTD SVG 1.1//EN" "http://www.w3.org/Graphics/SVG/1.1/DTD/svg11.dtd">
<!-- Uploaded to: SVG Repo, www.svgrepo.com, Transformed by: SVG Repo Mixer Tools -->
<svg width="800px" height="800px" viewBox="0 0 48 48" id="Layer_2" data-name="Layer 2" xmlns="http://www.w3.org/2000/svg" fill="#008CFF">
<g id="SVGRepo_bgCarrier" stroke-width="0"/>
<g id="SVGRepo_tracerCarrier" stroke-linecap="round" stroke-linejoin="round" stroke="#CCCCCC" stroke-width="1.056">
<defs>
<style>.cls-1{fill:none;stroke:#008CFF;stroke-linecap:round;stroke-linejoin:round;}</style>
</defs>
<path class="cls-1" d="M40.25,4.45a14.26,14.26,0,0,1,2.06,7.8c0,9.72-8.3,22.34-15,31.2H11.91L5.74,6.58,19.21,5.3l3.27,26.24c3.05-5,6.81-12.76,6.81-18.08A14.51,14.51,0,0,0,28,6.94Z"/>
</g>
<g id="SVGRepo_iconCarrier">
<defs>
<style>.cls-1{fill:none;stroke:#008CFF;stroke-linecap:round;stroke-linejoin:round;}</style>
</defs>
<path class="cls-1" d="M40.25,4.45a14.26,14.26,0,0,1,2.06,7.8c0,9.72-8.3,22.34-15,31.2H11.91L5.74,6.58,19.21,5.3l3.27,26.24c3.05-5,6.81-12.76,6.81-18.08A14.51,14.51,0,0,0,28,6.94Z"/>
</g>
</svg>